<?xml version="1.0" standalone="no"?>
<!DOCTYPE svg PUBLIC "-//W3C//DTD SVG 20010904//EN"
 "http://www.w3.org/TR/2001/REC-SVG-20010904/DTD/svg10.dtd">
<svg version="1.0" xmlns="http://www.w3.org/2000/svg"
 width="829.000000pt" height="591.000000pt" viewBox="0 0 829.000000 591.000000"
 preserveAspectRatio="xMidYMid meet">
<metadata>
Created by potrace 1.15, written by Peter Selinger 2001-2017
</metadata>
<g transform="translate(0.000000,591.000000) scale(0.100000,-0.100000)"
fill="#000000" stroke="none">
<path d="M3870 4403 c-49 -19 -50 -23 -50 -250 0 -200 1 -214 20 -233 15 -15
33 -20 70 -20 l50 0 0 -70 c0 -38 3 -70 6 -70 4 0 53 32 110 70 l103 70 124 0
c176 0 167 -13 167 252 0 188 -2 208 -19 229 l-19 24 -274 2 c-150 1 -280 -1
-288 -4z m436 -138 c4 -8 1 -22 -6 -30 -10 -12 -41 -15 -150 -15 -76 0 -145 3
-154 6 -16 6 -22 35 -9 47 3 4 75 7 160 7 128 0 155 -3 159 -15z m0 -100 c4
-8 1 -22 -6 -30 -10 -12 -41 -15 -150 -15 -76 0 -145 3 -154 6 -16 6 -22 35
-9 47 3 4 75 7 160 7 128 0 155 -3 159 -15z m0 -100 c4 -8 1 -22 -6 -30 -10
-12 -41 -15 -150 -15 -76 0 -145 3 -154 6 -16 6 -22 35 -9 47 3 4 75 7 160 7
128 0 155 -3 159 -15z"/>
<path d="M4380 3791 c-51 -11 -96 -37 -140 -81 -61 -61 -74 -93 -74 -186 -1
-54 -6 -87 -15 -98 -12 -14 -12 -26 -2 -71 7 -29 21 -65 31 -78 26 -33 50
-104 50 -152 1 -39 3 -42 85 -100 47 -33 85 -64 85 -70 0 -5 -14 -26 -30 -45
l-29 -35 21 -34 c21 -33 21 -38 8 -140 -7 -58 -15 -112 -17 -118 -4 -10 14
-13 72 -13 75 0 77 1 72 23 -3 12 -11 64 -18 116 -13 90 -12 95 8 131 l22 37
-29 34 c-16 19 -29 39 -29 44 0 6 38 37 84 70 82 58 85 61 85 100 0 42 26 122
47 143 13 14 43 105 43 133 0 9 -6 22 -14 28 -10 9 -12 33 -9 99 5 95 -11 146
-52 167 -11 5 -32 23 -48 38 -47 48 -135 73 -207 58z"/>
<path d="M3640 3679 c-59 -27 -77 -44 -108 -104 -22 -43 -26 -69 -33 -190 -5
-76 -11 -153 -15 -170 -7 -37 -41 -97 -60 -108 -8 -4 -14 -12 -14 -17 0 -17
95 -53 154 -59 l61 -6 3 -37 c4 -52 -17 -69 -139 -108 -202 -64 -219 -80 -219
-216 l0 -94 505 0 c278 0 505 3 505 6 0 10 -81 448 -83 451 -2 1 -51 -27 -110
-63 -102 -62 -109 -65 -141 -54 -46 15 -58 32 -54 77 l3 38 64 8 c58 7 107 25
139 50 10 8 8 13 -8 24 -45 32 -54 69 -60 248 -5 148 -9 175 -28 212 -27 51
-63 80 -111 89 -20 4 -52 15 -71 25 -46 25 -123 24 -180 -2z"/>
<path d="M4650 3023 c0 -5 -18 -107 -40 -228 -22 -121 -40 -221 -40 -222 0 -2
99 -3 220 -3 l220 0 0 79 c0 107 -7 136 -44 172 -53 53 -316 221 -316 202z"/>
<path d="M2266 2220 c-66 -20 -107 -92 -86 -154 15 -45 37 -64 133 -111 64
-31 84 -46 92 -69 8 -25 6 -31 -18 -52 -42 -36 -88 -32 -135 10 -35 32 -39 33
-65 20 -34 -18 -34 -25 -1 -64 37 -44 79 -62 143 -63 85 0 142 36 161 103 21
75 -20 132 -129 175 -81 33 -101 50 -101 86 0 57 86 72 133 23 27 -29 35 -29
67 -4 l25 19 -25 27 c-49 53 -125 74 -194 54z"/>
<path d="M2570 1980 l0 -240 45 0 44 0 3 137 3 137 60 -137 60 -137 36 0 36 0
64 143 64 142 3 -142 3 -143 44 0 45 0 0 241 0 240 -46 -3 -47 -3 -81 -177
c-44 -97 -83 -175 -86 -173 -3 2 -41 82 -85 179 l-80 176 -42 0 -43 0 0 -240z"/>
<path d="M3331 2178 c-10 -24 -57 -130 -105 -235 -47 -106 -86 -195 -86 -198
0 -3 19 -5 43 -5 42 0 43 1 64 50 l21 50 120 0 120 0 21 -50 c21 -49 22 -50
66 -50 l45 0 -24 53 c-12 28 -60 136 -106 240 l-83 187 -39 0 c-36 0 -40 -3
-57 -42z m103 -166 c20 -46 36 -90 36 -98 0 -11 -18 -14 -85 -14 -47 0 -85 3
-85 8 0 20 85 201 91 195 4 -4 24 -46 43 -91z"/>
<path d="M3700 1981 l0 -241 140 0 140 0 0 40 0 39 -97 3 -98 3 0 195 0 195
-43 3 -42 3 0 -240z"/>
<path d="M4060 1980 l0 -240 140 0 140 0 0 40 0 40 -100 0 -100 0 0 200 0 200
-40 0 -40 0 0 -240z"/>
<path d="M4400 2180 l0 -40 60 0 60 0 0 -200 0 -200 40 0 40 0 0 200 0 200 65
0 65 0 0 40 0 40 -165 0 -165 0 0 -40z"/>
<path d="M4977 2193 c-23 -45 -197 -440 -197 -447 0 -3 19 -6 43 -6 42 0 43 1
64 50 l21 50 120 0 119 0 21 -50 c21 -50 21 -50 66 -50 l45 0 -50 113 c-28 61
-76 169 -107 240 l-56 127 -38 0 c-31 0 -40 -5 -51 -27z m97 -182 c20 -47 36
-90 36 -98 0 -10 -21 -13 -85 -13 -47 0 -85 4 -85 9 0 22 84 201 90 194 4 -4
24 -46 44 -92z"/>
<path d="M5340 1980 l0 -240 140 0 140 0 0 40 0 39 -97 3 -98 3 -3 198 -2 197
-40 0 -40 0 0 -240z"/>
<path d="M5690 1980 l0 -240 45 0 45 0 0 73 c0 70 2 75 34 106 l33 32 79 -105
78 -106 48 0 c26 0 48 1 48 3 0 2 -45 64 -100 137 -98 130 -100 134 -83 154
10 12 51 58 92 103 l73 83 -53 0 -54 0 -95 -111 -95 -111 -3 111 -3 111 -44 0
-45 0 0 -240z"/>
</g>
</svg>
